<?xml version="1.0" encoding="UTF-8" standalone="no"?>
<svg
   xmlns:dc="http://purl.org/dc/elements/1.1/"
   xmlns:cc="http://creativecommons.org/ns#"
   xmlns:rdf="http://www.w3.org/1999/02/22-rdf-syntax-ns#"
   xmlns:svg="http://www.w3.org/2000/svg"
   xmlns="http://www.w3.org/2000/svg"
   xmlns:sodipodi="http://sodipodi.sourceforge.net/DTD/sodipodi-0.dtd"
   xmlns:inkscape="http://www.inkscape.org/namespaces/inkscape"
   viewBox="0 0 700 700"
   version="1.1"
   id="svg20"
   sodipodi:docname="adobe-Illustrator-logo.svg"
   width="700"
   height="700"
   inkscape:version="0.92.4 (5da689c313, 2019-01-14)"
   inkscape:export-filename="G:\Users\suitedoalex\sites\adobe-Illustrator-logo-0.png"
   inkscape:export-xdpi="561.73712"
   inkscape:export-ydpi="561.73712">
  <metadata
     id="metadata24">
    <rdf:RDF>
      <cc:Work
         rdf:about="">
        <dc:format>image/svg+xml</dc:format>
        <dc:type
           rdf:resource="http://purl.org/dc/dcmitype/StillImage" />
        <dc:title>Asset 104</dc:title>
      </cc:Work>
    </rdf:RDF>
  </metadata>
  <sodipodi:namedview
     pagecolor="#ffffff"
     bordercolor="#666666"
     borderopacity="1"
     objecttolerance="10"
     gridtolerance="10"
     guidetolerance="10"
     inkscape:pageopacity="0"
     inkscape:pageshadow="2"
     inkscape:window-width="1600"
     inkscape:window-height="837"
     id="namedview22"
     showgrid="false"
     inkscape:zoom="0.71315043"
     inkscape:cx="333.84615"
     inkscape:cy="243.2365"
     inkscape:window-x="-8"
     inkscape:window-y="-8"
     inkscape:window-maximized="1"
     inkscape:current-layer="svg20" />
  <defs
     id="defs4">
    <style
       id="style2">.cls-1{fill:#300;}.cls-2{fill:#ff9a00;}</style>
  </defs>
  <title
     id="title6">Asset 104</title>
  <g
     id="Layer_2"
     data-name="Layer 2"
     transform="matrix(2.09238,0,0,2.09238,98.9144,105.19154)"
     inkscape:export-filename="G:\Users\suitedoalex\sites\adobe-Illustrator-logo-4.png"
     inkscape:export-xdpi="76.467949"
     inkscape:export-ydpi="76.467949">
    <g
       id="Surfaces">
      <g
         id="Drawing_Surface"
         data-name="Drawing Surface">
        <g
           id="Outline_no_shadow"
           data-name="Outline no shadow">
          <rect
             class="cls-1"
             width="240"
             height="234"
             rx="42.5"
             id="rect8"
             x="0"
             y="0"
             style="fill:#330000" />
        </g>
      </g>
    </g>
    <g
       id="Outlined_Mnemonics_Logos"
       data-name="Outlined Mnemonics &amp; Logos">
      <g
         id="Ai">
        <path
           class="cls-2"
           d="M 116.30029,140.42822 H 79.10938 l -7.5669,23.50611 a 1.89431,1.89431 0 0 1 -1.93213,1.449 H 50.77344 q -1.61133,0 -1.127,-1.771 L 81.84619,70.87622 q 0.4834,-1.44873 0.96631,-3.30054 a 34.478,34.478 0 0 0 0.644,-6.52026 0.99643,0.99643 0 0 1 1.127,-1.1272 h 25.59863 q 1.125,0 1.28808,0.80518 l 36.54737,103.03979 q 0.48267,1.61133 -0.96631,1.61011 h -20.93018 a 1.48824,1.48824 0 0 1 -1.60986,-1.12695 z m -31.395,-20.28589 h 25.438 q -0.96606,-3.21863 -2.2539,-7.24511 -1.29054,-4.02246 -2.73682,-8.61353 -1.44947,-4.58826 -2.89844,-9.177 -1.44873,-4.58826 -2.65625,-8.855 -1.20776,-4.26379 -2.17334,-7.80835 h -0.16113 a 130.10721,130.10721 0 0 1 -3.38086,12.87988 q -2.2566,7.24512 -4.58887,14.812 -2.33568,7.56962 -4.58841,14.00711 z"
           id="path13"
           inkscape:connector-curvature="0"
           style="fill:#ff9a00" />
        <path
           class="cls-2"
           d="m 169.75049,76.99438 a 11.67783,11.67783 0 0 1 -8.855,-3.542 12.73665,12.73665 0 0 1 -3.38135,-9.177 11.813,11.813 0 0 1 3.62256,-8.93555 12.44131,12.44131 0 0 1 8.93555,-3.46142 q 5.79638,0 9.09668,3.46142 a 12.4294,12.4294 0 0 1 3.30029,8.93555 12.57378,12.57378 0 0 1 -3.46143,9.177 12.3536,12.3536 0 0 1 -9.2573,3.542 z m -11.10938,86.77881 v -76.958 c 0,-0.96582 0.42774,-1.449 1.28809,-1.449 h 19.80322 q 1.28687,0 1.28809,1.449 v 76.958 q 0,1.61133 -1.28809,1.61011 h -19.64209 q -1.44873,0 -1.44922,-1.61011 z"
           id="path15"
           inkscape:connector-curvature="0"
           style="fill:#ff9a00" />
      </g>
    </g>
  </g>
</svg>
